# xmcd
#
# Track frame offsets: 
#        150
#        13904
#        27606
#        41292
#        57651
#        66922
#        76012
#        91605
#        102835
#        117844
#        127743
#        134723
#        151030
#        166278
#        176639
#        187237
#        197707
#        212571
#        223664
#        236026
#        250030
#        265118
#        277658
#        289680
#
# Disc length: 4059 seconds
#
# Revision: 0
# Processed by: cddbd v1.5.2PL0 Copyright (c) Steve Scherf et al.
# Submitted via: ExactAudioCopy v0.99pb4
#
DISCID=510fd918
DTITLE=Большой Детский Хор - Песни из кино и мультфильмов
DYEAR=2003
DGENRE=Retro
TTITLE0=Песенка крокодила Гены
TTITLE1=Голубой вагон
TTITLE2=Дважды два - четыре
TTITLE3=Первоклашка
TTITLE4=Чему учат в школе
TTITLE5=Песенка про папу
TTITLE6=Рассвет - чародей
TTITLE7=Игра
TTITLE8=Улыбка
TTITLE9=Чунга-чанга
TTITLE10=По секрету - всему свету
TTITLE11=Пропала собака
TTITLE12=Когда мои друзья со мной
TTITLE13=Вместе весело шагать
TTITLE14=Дорога добра
TTITLE15=Из чего же, из чего же...
TTITLE16=Мой щенок
TTITLE17=Наташка - первоклашка
TTITLE18=Про жирафа
TTITLE19=Песня о любознательном щенке
TTITLE20=Крылатые качели
TTITLE21=Песня о колоколах
TTITLE22=Ласточка
TTITLE23=Прекрасное далеко
EXTD=
EXTT0=
EXTT1=
EXTT2=
EXTT3=
EXTT4=
EXTT5=
EXTT6=
EXTT7=
EXTT8=
EXTT9=
EXTT10=
EXTT11=
EXTT12=
EXTT13=
EXTT14=
EXTT15=
EXTT16=
EXTT17=
EXTT18=
EXTT19=
EXTT20=
EXTT21=
EXTT22=
EXTT23=
PLAYORDER=
